<svg width="28" height="29" viewBox="0 0 28 29" fill="none" xmlns="http://www.w3.org/2000/svg">
<mask id="mask0_501_777" style="mask-type:alpha" maskUnits="userSpaceOnUse" x="0" y="0" width="28" height="29">
<rect y="0.1875" width="28" height="28" fill="#D9D9D9"/>
</mask>
<g mask="url(#mask0_501_777)">
<path d="M13.9999 24.6875L12.3083 23.1708C10.3444 21.4014 8.72075 19.875 7.43742 18.5917C6.15409 17.3083 5.13325 16.1563 4.37492 15.1354C3.61659 14.1146 3.08672 13.1764 2.78534 12.3208C2.48395 11.4653 2.33325 10.5903 2.33325 9.69584C2.33325 7.86806 2.94575 6.34167 4.17075 5.11667C5.39575 3.89167 6.92214 3.27917 8.74992 3.27917C9.76103 3.27917 10.7235 3.49306 11.6374 3.92084C12.5513 4.34862 13.3388 4.9514 13.9999 5.72917C14.661 4.9514 15.4485 4.34862 16.3624 3.92084C17.2763 3.49306 18.2388 3.27917 19.2499 3.27917C21.0777 3.27917 22.6041 3.89167 23.8291 5.11667C25.0541 6.34167 25.6666 7.86806 25.6666 9.69584C25.6666 10.5903 25.5159 11.4653 25.2145 12.3208C24.9131 13.1764 24.3833 14.1146 23.6249 15.1354C22.8666 16.1563 21.8458 17.3083 20.5624 18.5917C19.2791 19.875 17.6555 21.4014 15.6916 23.1708L13.9999 24.6875ZM13.9999 21.5375C15.8666 19.8653 17.4027 18.4313 18.6083 17.2354C19.8138 16.0396 20.7666 14.9993 21.4666 14.1146C22.1666 13.2299 22.6527 12.4424 22.9249 11.7521C23.1971 11.0618 23.3333 10.3764 23.3333 9.69584C23.3333 8.52917 22.9444 7.55695 22.1666 6.77917C21.3888 6.0014 20.4166 5.61251 19.2499 5.61251C18.336 5.61251 17.4902 5.87015 16.7124 6.38542C15.9346 6.9007 15.3999 7.55695 15.1083 8.35417H12.8916C12.5999 7.55695 12.0652 6.9007 11.2874 6.38542C10.5096 5.87015 9.66381 5.61251 8.74992 5.61251C7.58325 5.61251 6.61103 6.0014 5.83325 6.77917C5.05547 7.55695 4.66659 8.52917 4.66659 9.69584C4.66659 10.3764 4.8027 11.0618 5.07492 11.7521C5.34714 12.4424 5.83325 13.2299 6.53325 14.1146C7.23325 14.9993 8.18603 16.0396 9.39159 17.2354C10.5971 18.4313 12.1333 19.8653 13.9999 21.5375Z" fill="black"/>
</g>
</svg>
