<svg width="32" height="29" viewBox="0 0 32 29" fill="none" xmlns="http://www.w3.org/2000/svg">
<mask id="mask0_501_771" style="mask-type:alpha" maskUnits="userSpaceOnUse" x="0" y="0" width="32" height="29">
<rect y="0.1875" width="32" height="28" fill="#D9D9D9"/>
</mask>
<g mask="url(#mask0_501_771)">
<path d="M12 19.4375C11.0667 19.4375 10.2778 19.1556 9.63333 18.5917C8.98889 18.0278 8.66667 17.3375 8.66667 16.5208C8.66667 15.7042 8.98889 15.0139 9.63333 14.45C10.2778 13.8861 11.0667 13.6042 12 13.6042C12.9333 13.6042 13.7222 13.8861 14.3667 14.45C15.0111 15.0139 15.3333 15.7042 15.3333 16.5208C15.3333 17.3375 15.0111 18.0278 14.3667 18.5917C13.7222 19.1556 12.9333 19.4375 12 19.4375ZM6.66667 25.8542C5.93333 25.8542 5.30556 25.6257 4.78333 25.1688C4.26111 24.7118 4 24.1625 4 23.5208V7.18751C4 6.54584 4.26111 5.99654 4.78333 5.53959C5.30556 5.08265 5.93333 4.85418 6.66667 4.85418H8V2.52084H10.6667V4.85418H21.3333V2.52084H24V4.85418H25.3333C26.0667 4.85418 26.6944 5.08265 27.2167 5.53959C27.7389 5.99654 28 6.54584 28 7.18751V23.5208C28 24.1625 27.7389 24.7118 27.2167 25.1688C26.6944 25.6257 26.0667 25.8542 25.3333 25.8542H6.66667ZM6.66667 23.5208H25.3333V11.8542H6.66667V23.5208ZM6.66667 9.52084H25.3333V7.18751H6.66667V9.52084Z" fill="black"/>
</g>
</svg>
