<svg width="28" height="29" viewBox="0 0 28 29" fill="none" xmlns="http://www.w3.org/2000/svg">
<mask id="mask0_501_774" style="mask-type:alpha" maskUnits="userSpaceOnUse" x="0" y="0" width="28" height="29">
<rect y="0.1875" width="28" height="28" fill="#D9D9D9"/>
</mask>
<g mask="url(#mask0_501_774)">
<path d="M14.0001 16.6229L21.0001 11.9562L14.0001 7.28957V16.6229ZM14.8168 23.0396H21.3501C21.214 23.5451 20.9807 23.9535 20.6501 24.2646C20.3196 24.5757 19.8918 24.7701 19.3668 24.8479L6.65012 26.3937C6.00845 26.491 5.42998 26.3403 4.9147 25.9417C4.39942 25.543 4.10289 25.0229 4.02512 24.3812L2.47928 11.6354C2.40151 10.9937 2.55706 10.4201 2.94595 9.91457C3.33484 9.40902 3.85012 9.11735 4.49178 9.03957L5.83345 8.86457V11.1979L4.78345 11.3437L6.35845 24.0896L14.8168 23.0396ZM10.5001 20.7062C9.85845 20.7062 9.30914 20.4778 8.8522 20.0208C8.39526 19.5639 8.16678 19.0146 8.16678 18.3729V5.53957C8.16678 4.8979 8.39526 4.3486 8.8522 3.89165C9.30914 3.43471 9.85845 3.20624 10.5001 3.20624H23.3335C23.9751 3.20624 24.5244 3.43471 24.9814 3.89165C25.4383 4.3486 25.6668 4.8979 25.6668 5.53957V18.3729C25.6668 19.0146 25.4383 19.5639 24.9814 20.0208C24.5244 20.4778 23.9751 20.7062 23.3335 20.7062H10.5001ZM10.5001 18.3729H23.3335V5.53957H10.5001V18.3729Z" fill="black"/>
</g>
</svg>
