<svg width="28" height="28" viewBox="0 0 28 28" fill="none" xmlns="http://www.w3.org/2000/svg">
<mask id="mask0_363_2434" style="mask-type:alpha" maskUnits="userSpaceOnUse" x="0" y="0" width="28" height="28">
<rect width="28" height="28" fill="#D9D9D9"/>
</mask>
<g mask="url(#mask0_363_2434)">
<path d="M6.82492 22.2608C7.81659 21.4834 8.92492 20.8705 10.1499 20.422C11.3749 19.9735 12.6583 19.7492 13.9999 19.7492C15.3416 19.7492 16.6249 19.9735 17.8499 20.422C19.0749 20.8705 20.1833 21.4834 21.1749 22.2608C21.8555 21.4435 22.3853 20.5167 22.7645 19.4801C23.1437 18.4436 23.3333 17.3373 23.3333 16.1613C23.3333 13.5102 22.4242 11.2527 20.6062 9.38901C18.7881 7.52526 16.586 6.59339 13.9999 6.59339C11.4138 6.59339 9.21172 7.52526 7.39367 9.38901C5.57561 11.2527 4.66659 13.5102 4.66659 16.1613C4.66659 17.3373 4.85617 18.4436 5.23534 19.4801C5.6145 20.5167 6.14436 21.4435 6.82492 22.2608ZM13.9999 17.3573C12.8527 17.3573 11.8853 16.9536 11.0978 16.1463C10.3103 15.339 9.91658 14.3474 9.91658 13.1713C9.91658 11.9953 10.3103 11.0036 11.0978 10.1963C11.8853 9.38901 12.8527 8.98536 13.9999 8.98536C15.1471 8.98536 16.1145 9.38901 16.902 10.1963C17.6895 11.0036 18.0833 11.9953 18.0833 13.1713C18.0833 14.3474 17.6895 15.339 16.902 16.1463C16.1145 16.9536 15.1471 17.3573 13.9999 17.3573ZM13.9999 28.1211C12.386 28.1211 10.8694 27.8072 9.44992 27.1793C8.03047 26.5514 6.79575 25.6993 5.74575 24.6229C4.69575 23.5465 3.8645 22.2807 3.252 20.8256C2.6395 19.3705 2.33325 17.8157 2.33325 16.1613C2.33325 14.5068 2.6395 12.952 3.252 11.4969C3.8645 10.0418 4.69575 8.77606 5.74575 7.69967C6.79575 6.62329 8.03047 5.77115 9.44992 5.14325C10.8694 4.51536 12.386 4.20142 13.9999 4.20142C15.6138 4.20142 17.1305 4.51536 18.5499 5.14325C19.9694 5.77115 21.2041 6.62329 22.2541 7.69967C23.3041 8.77606 24.1353 10.0418 24.7478 11.4969C25.3603 12.952 25.6666 14.5068 25.6666 16.1613C25.6666 17.8157 25.3603 19.3705 24.7478 20.8256C24.1353 22.2807 23.3041 23.5465 22.2541 24.6229C21.2041 25.6993 19.9694 26.5514 18.5499 27.1793C17.1305 27.8072 15.6138 28.1211 13.9999 28.1211ZM13.9999 25.7292C15.0305 25.7292 16.0027 25.5747 16.9166 25.2657C17.8305 24.9568 18.6666 24.5132 19.4249 23.9352C18.6666 23.3571 17.8305 22.9136 16.9166 22.6046C16.0027 22.2957 15.0305 22.1412 13.9999 22.1412C12.9694 22.1412 11.9971 22.2957 11.0833 22.6046C10.1694 22.9136 9.33325 23.3571 8.57492 23.9352C9.33325 24.5132 10.1694 24.9568 11.0833 25.2657C11.9971 25.5747 12.9694 25.7292 13.9999 25.7292ZM13.9999 14.9653C14.5055 14.9653 14.9235 14.7959 15.2541 14.457C15.5846 14.1181 15.7499 13.6896 15.7499 13.1713C15.7499 12.653 15.5846 12.2245 15.2541 11.8856C14.9235 11.5468 14.5055 11.3773 13.9999 11.3773C13.4944 11.3773 13.0763 11.5468 12.7458 11.8856C12.4152 12.2245 12.2499 12.653 12.2499 13.1713C12.2499 13.6896 12.4152 14.1181 12.7458 14.457C13.0763 14.7959 13.4944 14.9653 13.9999 14.9653Z" fill="#1C1B1F"/>
</g>
</svg>
