<svg width="52" height="70" viewBox="0 0 52 70" fill="none" xmlns="http://www.w3.org/2000/svg">
<path d="M1 61.154V67.8137L4.59408 67.2851V65.3824L5.01691 62.6339V59.6741L5.96829 58.617H6.91966V60.4141L5.96829 63.5853V64.5367L5.86258 68.6593L14.1078 69.1879V62.6339L14.7421 60.4141V57.0314L15.6934 53.3316V49.949V48.8919L16.7505 47.7291L26.6871 59.6741L33.1353 67.8137L35.2495 69.1879H36.518H37.6808V67.2851V65.9109V64.9595L38.7378 65.9109H40.4292L41.4863 64.9595L42.8605 63.5853L44.3404 61.7883L45.3975 59.6741L41.4863 57.0314L33.981 49.949L29.3298 45.0864L25.1015 39.801L23.9387 38.4268V37.6868L25.1015 36.7354L27.9556 34.5156L36.3066 28.4902L42.8605 22.042L46.5603 17.2851L49.203 11.154L51 7.77137V6.18574V4.70583C50.8238 4.31823 50.408 3.45847 50.1543 3.1202C49.9006 2.78194 49.4144 2.34501 49.203 2.16883H48.3573H47.4059H44.3404H41.4863L39.5835 6.9257L33.1353 13.5853L26.6871 19.3993L23.9387 22.042L20.7674 23.6276H20.1332L21.6131 17.2851L23.093 9.99124L23.9387 4.70583L20.1332 1.00604C19.2523 1.04128 17.3425 1.09061 16.7505 1.00604C16.1586 0.921472 14.1783 1.746 13.2622 2.16883L11.9937 7.77137L9.56237 22.6762L5.96829 36.7354L1 61.154Z" fill="#F2652F"/>
<path d="M37.6808 64.9595L38.7378 65.9109H40.4292L41.4863 64.9595L42.8605 63.5853L44.3404 61.7883L45.3975 59.6741L41.4863 57.0314L33.981 49.949L29.3298 45.0864L25.1015 39.801L23.9387 38.4268V37.6868L25.1015 36.7354L27.9556 34.5156L36.3066 28.4902L42.8605 22.042L46.5603 17.2851L49.203 11.154L51 7.77137C51 7.48948 51 6.77771 51 6.18574C51 5.59378 51 4.95248 51 4.70583C50.8238 4.31823 50.408 3.45847 50.1543 3.1202C49.9006 2.78194 49.4144 2.34501 49.203 2.16883H48.3573H47.4059H44.3404H41.4863L39.5835 6.9257L33.1353 13.5853L26.6871 19.3993L23.9387 22.042L20.7674 23.6276H20.1332L21.6131 17.2851L23.093 9.99124L23.9387 4.70583L20.1332 1.00604C19.2523 1.04128 17.3425 1.09061 16.7505 1.00604C16.1586 0.921472 14.1783 1.746 13.2622 2.16883L11.9937 7.77137L9.56237 22.6762L5.96829 36.7354L1 61.154V67.8137L4.59408 67.2851V65.3824L5.01691 62.6339V59.6741L5.96829 58.617H6.91966V60.4141L5.96829 63.5853V64.5367L5.86258 68.6593L14.1078 69.1879V62.6339L14.7421 60.4141V57.0314L15.6934 53.3316V49.949V48.8919L16.7505 47.7291L26.6871 59.6741L33.1353 67.8137L35.2495 69.1879H36.518H37.6808V67.2851V65.9109V64.9595ZM37.6808 64.9595L37.0994 64.5367L36.518 64.1139" stroke="black"/>
</svg>
