<svg width="24" height="24" viewBox="0 0 24 24" fill="none" xmlns="http://www.w3.org/2000/svg">
<path d="M17.4978 -0.00012207C16.3722 0.0186515 15.2711 0.355578 14.3058 0.976632C13.3405 1.59769 12.5451 2.48088 12 3.53701C11.4549 2.48088 10.6595 1.59769 9.69417 0.976632C8.72886 0.355578 7.62781 0.0186515 6.50222 -0.00012207C4.70788 0.083473 3.01733 0.925165 1.7999 2.34107C0.582466 3.75697 -0.0628841 5.63199 0.00483915 7.55649C0.00483915 14.8183 10.9564 23.2056 11.4222 23.5615L12 23.9999L12.5778 23.5615C13.0436 23.2078 23.9952 14.8183 23.9952 7.55649C24.0629 5.63199 23.4175 3.75697 22.2001 2.34107C20.9827 0.925165 19.2921 0.083473 17.4978 -0.00012207ZM12 21.361C8.74831 18.7563 2.00403 12.3573 2.00403 7.55649C1.9357 6.20028 2.37025 4.87012 3.21291 3.85611C4.05557 2.84209 5.23796 2.22651 6.50222 2.1436C7.76647 2.22651 8.94887 2.84209 9.79153 3.85611C10.6342 4.87012 11.0687 6.20028 11.0004 7.55649H12.9996C12.9313 6.20028 13.3658 4.87012 14.2085 3.85611C15.0511 2.84209 16.2335 2.22651 17.4978 2.1436C18.762 2.22651 19.9444 2.84209 20.7871 3.85611C21.6297 4.87012 22.0643 6.20028 21.996 7.55649C21.996 12.3595 15.2517 18.7563 12 21.361Z" fill="black"/>
</svg>
