<svg width="179" height="77" viewBox="0 0 179 77" fill="none" xmlns="http://www.w3.org/2000/svg">
<path d="M0.806819 75V2.27273H9.61364V67.1875H43.4205V75H0.806819ZM55.9205 75V20.4545H64.3011V75H55.9205ZM60.1818 11.3636C58.5483 11.3636 57.1397 10.8073 55.956 9.6946C54.7959 8.58191 54.2159 7.24432 54.2159 5.68182C54.2159 4.11932 54.7959 2.78172 55.956 1.66903C57.1397 0.556344 58.5483 0 60.1818 0C61.8153 0 63.2121 0.556344 64.3722 1.66903C65.5559 2.78172 66.1477 4.11932 66.1477 5.68182C66.1477 7.24432 65.5559 8.58191 64.3722 9.6946C63.2121 10.8073 61.8153 11.3636 60.1818 11.3636ZM124.253 20.4545L104.083 75H95.56L75.3896 20.4545H84.4805L99.5373 63.9205H100.105L115.162 20.4545H124.253ZM156.231 76.1364C150.975 76.1364 146.442 74.9763 142.63 72.6562C138.842 70.3125 135.919 67.0455 133.859 62.8551C131.823 58.6411 130.805 53.7405 130.805 48.1534C130.805 42.5663 131.823 37.642 133.859 33.3807C135.919 29.0956 138.783 25.7576 142.453 23.3665C146.146 20.9517 150.455 19.7443 155.379 19.7443C158.22 19.7443 161.025 20.2178 163.795 21.1648C166.565 22.1117 169.086 23.6506 171.359 25.7812C173.632 27.8883 175.443 30.6818 176.792 34.1619C178.142 37.642 178.816 41.9271 178.816 47.017V50.5682H136.771V43.3239H170.294C170.294 40.2462 169.678 37.5 168.447 35.0852C167.24 32.6705 165.511 30.7647 163.262 29.3679C161.037 27.9711 158.409 27.2727 155.379 27.2727C152.041 27.2727 149.153 28.1013 146.714 29.7585C144.299 31.392 142.441 33.5227 141.139 36.1506C139.837 38.7784 139.186 41.5956 139.186 44.6023V49.4318C139.186 53.5511 139.896 57.0431 141.316 59.9077C142.761 62.7486 144.761 64.9148 147.318 66.4062C149.875 67.8741 152.846 68.608 156.231 68.608C158.433 68.608 160.422 68.3002 162.197 67.6847C163.996 67.0455 165.547 66.0985 166.849 64.8438C168.151 63.5653 169.157 61.9792 169.868 60.0852L177.964 62.358C177.112 65.1042 175.68 67.5189 173.667 69.6023C171.655 71.6619 169.169 73.2718 166.21 74.4318C163.251 75.5682 159.924 76.1364 156.231 76.1364Z" fill="#B20000"/>
</svg>
