<svg width="163" height="137" viewBox="0 0 163 137" fill="none" xmlns="http://www.w3.org/2000/svg">
<mask id="path-1-inside-1_159_373" fill="white">
<path d="M0 8C0 3.58172 3.58172 0 8 0H155C159.418 0 163 3.58172 163 8V137H0V8Z"/>
</mask>
<path d="M-5 8C-5 0.820298 0.820298 -5 8 -5H155C162.18 -5 168 0.820298 168 8H158C158 6.34315 156.657 5 155 5H8C6.34315 5 5 6.34315 5 8H-5ZM163 137H0H163ZM-5 137V8C-5 0.820298 0.820298 -5 8 -5V5C6.34315 5 5 6.34315 5 8V137H-5ZM155 -5C162.18 -5 168 0.820298 168 8V137H158V8C158 6.34315 156.657 5 155 5V-5Z" fill="black" mask="url(#path-1-inside-1_159_373)"/>
<g clip-path="url(#clip0_159_373)">
<path d="M76.8596 19.2406C65.9658 20.2469 55.1596 24.6656 46.6721 31.5781C44.1783 33.6125 40.2627 37.5719 38.2064 40.1094C33.4596 46.0375 29.6096 53.825 27.7502 61.2188C24.4252 74.4094 25.8689 87.7312 31.9283 99.9156C37.3752 110.919 46.0596 119.603 57.0846 125.072C70.8658 131.941 86.3533 132.859 100.922 127.697C104.225 126.516 109.672 123.825 112.625 121.878C121.31 116.169 128.419 107.944 132.75 98.625C139.969 83.0281 139.728 65.4406 132.072 50.0844C129.228 44.3531 126.275 40.2187 121.747 35.6469C117.175 31.0312 112.756 27.8375 106.916 24.9281C97.5096 20.2469 87.1627 18.2781 76.8596 19.2406ZM70.8439 27.9906C73.5127 29.4781 75.6564 30.9219 75.6346 31.25C75.6346 31.425 74.2346 35.7562 72.5283 40.875L69.4221 50.15L67.3439 50.9813C64.1939 52.25 56.8877 55.925 53.3877 58.0469L50.2596 59.9281L49.4502 59.4688C49.0127 59.2063 46.1908 57.5438 43.2158 55.7938L37.7908 52.5781L37.9221 51.8781C38.1189 50.7625 40.5252 44.8563 41.8158 42.275C42.8877 40.1094 43.2377 39.6719 45.2721 37.6594C46.5189 36.4125 48.2471 34.8594 49.0783 34.1812C53.0158 31.0312 59.0971 27.5312 63.2752 26.0219L65.0252 25.3875L67.3221 26.3719C68.5908 26.8969 70.1658 27.6187 70.8439 27.9906ZM107.156 28.9969C111.356 31.25 115.556 34.4437 119.231 38.1625C122.185 41.1375 124.11 43.5438 126.231 46.8906C127.806 49.4063 129.797 53.0813 129.644 53.2344C129.6 53.2781 128.878 52.8625 128.047 52.3375C126.253 51.1781 120.347 48.2031 119.1 47.8313C118.335 47.5906 117.175 46.3875 110.022 38.2937C101.316 28.4937 101.381 28.5812 101.775 26.9625L101.906 26.4594L103.613 27.225C104.531 27.6406 106.128 28.45 107.156 28.9969ZM105.45 38.5125C109.322 42.8875 113.128 47.1531 113.894 48.0281L115.294 49.6031L114.594 51.7469C113.763 54.2625 110.022 63.8656 109.738 64.1719C109.475 64.4563 85.4127 66.9063 85.2596 66.6656C84.9752 66.1844 75.8314 55.9031 74.2127 54.2406L72.4408 52.4031L75.7877 42.3406C77.6471 36.7844 79.2439 32.1687 79.3533 32.0594C79.7471 31.6656 90.8158 30.6812 95.4971 30.6156L98.3846 30.5937L105.45 38.5125ZM41.7721 59.0531C45.0752 61 47.8971 62.7063 48.0283 62.8375C48.2252 63.0125 48.3783 64.5875 48.5314 67.7813C48.7502 72.6156 49.3189 77.625 50.0408 81.4094L50.4346 83.5531L45.7533 90.925C43.1721 94.9719 40.9189 98.4281 40.7658 98.6031C40.5252 98.8437 40.1533 98.6687 38.4689 97.5094C37.3533 96.7437 35.6033 95.3875 34.5533 94.4687L32.6939 92.8281L31.9939 90.6406C29.5221 82.9187 28.9752 73.7313 30.5064 65.2656C30.7689 63.9094 31.1189 62.8594 31.6439 61.875C32.3877 60.5406 35.6033 55.5313 35.7346 55.5313C35.7783 55.5313 38.4908 57.1281 41.7721 59.0531ZM112.275 71.3031C115.031 75.525 117 78.85 118.619 82L119.91 84.5156L113.85 95.8031L107.813 107.069L105.341 107.462C100.069 108.316 93.8564 108.906 90.2033 108.906H87.7971L81.8908 98.7125C78.6314 93.0906 75.9627 88.3875 75.9189 88.2125C75.8752 88.0594 77.0127 85.7406 78.4564 83.05C79.9002 80.3594 81.9783 76.4219 83.0939 74.2781C84.7346 71.1063 85.1939 70.4063 85.5658 70.3844C85.8283 70.3844 91.0127 69.8594 97.0939 69.225C103.175 68.5688 108.578 68.0438 109.125 68.0219L110.131 68L112.275 71.3031ZM133.953 81.6938C132.553 92.9594 127.413 103.547 119.341 111.728C116.628 114.484 112.888 117.591 112.756 117.175C112.713 117.022 112.494 115.95 112.297 114.812C112.1 113.675 111.706 111.859 111.4 110.809L110.875 108.884L117.131 97.2031L123.388 85.5219L125.619 84.4281C128.244 83.1375 131.81 81.0375 133.188 79.9656C133.735 79.55 134.194 79.2219 134.216 79.2438C134.238 79.2438 134.106 80.3594 133.953 81.6938ZM56.1439 87.3375C59.6658 88.2344 64.6752 89.2187 69.4877 90.0062C71.3689 90.3125 73.0314 90.6625 73.1627 90.8156C73.2939 90.9687 74.9346 93.725 76.8158 96.9844C78.6752 100.222 81.2346 104.684 82.5033 106.872L84.8002 110.831L81.7158 115.075C80.0096 117.416 78.3689 119.647 78.0627 120.041L77.4939 120.741L65.0471 118.509C53.0596 116.387 52.5564 116.278 52.0752 115.731C51.2002 114.703 49.2971 112.144 47.8314 110C46.3658 107.856 43.0627 102.256 43.0627 101.906C43.0627 101.578 52.7096 86.5937 52.9283 86.5937C53.0596 86.5937 54.5033 86.9219 56.1439 87.3375ZM66.9939 122.469C75.1096 123.912 77.2752 124.372 78.1502 124.831C78.7627 125.137 80.2721 125.794 81.5189 126.297L83.7721 127.216L82.5689 127.347C81.2564 127.478 76.9471 127.216 74.3877 126.844C69.7721 126.187 63.9096 124.416 59.6439 122.403C57.0627 121.2 55.5971 120.325 56.5158 120.587C56.7564 120.653 61.4814 121.506 66.9939 122.469Z" fill="black"/>
</g>
<defs>
<clipPath id="clip0_159_373">
<path d="M26 27C26 22.5817 29.5817 19 34 19H130C134.418 19 138 22.5817 138 27V131H26V27Z" fill="white"/>
</clipPath>
</defs>
</svg>
