<svg width="23" height="21" viewBox="0 0 23 21" fill="none" xmlns="http://www.w3.org/2000/svg">
<path d="M20.3566 5.47794L3.52776 0.621688C2.57526 0.333984 1.54125 0.624674 0.890071 1.36094C0.237483 2.09998 0.118516 3.1223 0.585907 3.96474C0.60597 3.99869 5.4543 10.3745 5.4543 10.3745C5.4543 10.3745 2.62241 17.828 2.61413 17.8651C2.39805 18.8044 2.79661 19.7523 3.62751 20.282C4.14209 20.609 4.75088 20.7295 5.33479 20.6475C5.69555 20.5968 6.04635 20.4688 6.36125 20.2646L21.1308 10.9735C22.1931 10.3086 22.749 9.15645 22.5809 7.96667C22.4135 6.77594 21.559 5.82202 20.3566 5.47794ZM2.13919 3.11281C1.98267 2.77993 2.17959 2.5171 2.24538 2.44116C2.31457 2.36388 2.57236 2.11815 2.97086 2.24001C2.97551 2.24106 19.8212 7.10179 19.8212 7.10179C20.0452 7.16608 20.2393 7.2739 20.3969 7.41593L6.86368 9.31791L2.13919 3.11281ZM20.166 9.56137L5.38327 18.8612C5.03303 19.0891 4.71849 18.9247 4.63044 18.8678C4.54563 18.8147 4.28365 18.6147 4.34312 18.2506L7.10291 10.9945L20.6379 9.09228C20.5259 9.27476 20.366 9.43577 20.166 9.56137Z" fill="black"/>
</svg>
