<svg width="512" height="272" viewBox="0 0 512 272" fill="none" xmlns="http://www.w3.org/2000/svg">
<rect x="6" y="6" width="500" height="260" rx="42" stroke="black" stroke-width="12"/>
<path d="M86.5795 128.455C86.1534 124.856 84.4252 122.062 81.3949 120.074C78.3646 118.085 74.6477 117.091 70.2443 117.091C67.0246 117.091 64.2074 117.612 61.7926 118.653C59.4015 119.695 57.5313 121.127 56.1818 122.95C54.8561 124.773 54.1932 126.845 54.1932 129.165C54.1932 131.106 54.6548 132.775 55.5781 134.172C56.5251 135.545 57.7325 136.693 59.2003 137.616C60.6681 138.516 62.2069 139.262 63.8168 139.854C65.4266 140.422 66.9062 140.884 68.2557 141.239L75.642 143.227C77.536 143.724 79.643 144.411 81.9631 145.287C84.3068 146.163 86.544 147.358 88.6747 148.874C90.8291 150.365 92.6046 152.283 94.0014 154.626C95.3982 156.97 96.0966 159.847 96.0966 163.256C96.0966 167.186 95.0668 170.737 93.0071 173.909C90.9711 177.081 87.9882 179.603 84.0582 181.473C80.152 183.343 75.4053 184.278 69.8182 184.278C64.6098 184.278 60.0999 183.438 56.2884 181.757C52.5005 180.076 49.5175 177.732 47.3395 174.726C45.1851 171.719 43.9659 168.227 43.6818 164.25H52.7727C53.0095 166.996 53.9328 169.269 55.5426 171.068C57.1761 172.844 59.2358 174.17 61.7216 175.045C64.2311 175.898 66.9299 176.324 69.8182 176.324C73.1799 176.324 76.1984 175.779 78.8736 174.69C81.5488 173.578 83.6676 172.039 85.2301 170.074C86.7926 168.085 87.5739 165.765 87.5739 163.114C87.5739 160.699 86.8991 158.734 85.5497 157.219C84.2003 155.704 82.4247 154.473 80.223 153.526C78.0213 152.579 75.642 151.75 73.0852 151.04L64.1364 148.483C58.4545 146.849 53.9564 144.518 50.642 141.487C47.3277 138.457 45.6705 134.491 45.6705 129.591C45.6705 125.519 46.7713 121.968 48.973 118.938C51.1984 115.884 54.1813 113.516 57.9219 111.835C61.6861 110.131 65.8883 109.278 70.5284 109.278C75.2159 109.278 79.3826 110.119 83.0284 111.8C86.6742 113.457 89.5625 115.73 91.6932 118.618C93.8475 121.506 94.9839 124.785 95.1023 128.455H86.5795ZM106.599 118.085V110.273H161.145V118.085H138.275V183H129.468V118.085H106.599ZM169.223 183H159.99L186.695 110.273H195.786L222.49 183H213.257L191.525 121.778H190.956L169.223 183ZM172.632 154.591H209.848V162.403H172.632V154.591ZM221.345 118.085V110.273H275.891V118.085H253.021V183H244.214V118.085H221.345ZM329.255 128.455C328.829 124.856 327.101 122.062 324.071 120.074C321.04 118.085 317.324 117.091 312.92 117.091C309.7 117.091 306.883 117.612 304.468 118.653C302.077 119.695 300.207 121.127 298.858 122.95C297.532 124.773 296.869 126.845 296.869 129.165C296.869 131.106 297.331 132.775 298.254 134.172C299.201 135.545 300.408 136.693 301.876 137.616C303.344 138.516 304.883 139.262 306.493 139.854C308.102 140.422 309.582 140.884 310.931 141.239L318.318 143.227C320.212 143.724 322.319 144.411 324.639 145.287C326.983 146.163 329.22 147.358 331.35 148.874C333.505 150.365 335.28 152.283 336.677 154.626C338.074 156.97 338.772 159.847 338.772 163.256C338.772 167.186 337.743 170.737 335.683 173.909C333.647 177.081 330.664 179.603 326.734 181.473C322.828 183.343 318.081 184.278 312.494 184.278C307.286 184.278 302.776 183.438 298.964 181.757C295.176 180.076 292.193 177.732 290.015 174.726C287.861 171.719 286.642 168.227 286.358 164.25H295.449C295.685 166.996 296.609 169.269 298.218 171.068C299.852 172.844 301.912 174.17 304.397 175.045C306.907 175.898 309.606 176.324 312.494 176.324C315.856 176.324 318.874 175.779 321.549 174.69C324.225 173.578 326.343 172.039 327.906 170.074C329.468 168.085 330.25 165.765 330.25 163.114C330.25 160.699 329.575 158.734 328.225 157.219C326.876 155.704 325.1 154.473 322.899 153.526C320.697 152.579 318.318 151.75 315.761 151.04L306.812 148.483C301.13 146.849 296.632 144.518 293.318 141.487C290.003 138.457 288.346 134.491 288.346 129.591C288.346 125.519 289.447 121.968 291.649 118.938C293.874 115.884 296.857 113.516 300.598 111.835C304.362 110.131 308.564 109.278 313.204 109.278C317.892 109.278 322.058 110.119 325.704 111.8C329.35 113.457 332.238 115.73 334.369 118.618C336.523 121.506 337.66 124.785 337.778 128.455H329.255Z" fill="black"/>
<path d="M451.121 149.121C452.293 147.95 452.293 146.05 451.121 144.879L432.029 125.787C430.858 124.615 428.958 124.615 427.787 125.787C426.615 126.958 426.615 128.858 427.787 130.029L444.757 147L427.787 163.971C426.615 165.142 426.615 167.042 427.787 168.213C428.958 169.385 430.858 169.385 432.029 168.213L451.121 149.121ZM393 150L449 150L449 144L393 144L393 150Z" fill="black"/>
</svg>
